<svg version="1" xmlns="http://www.w3.org/2000/svg" width="682.667" height="682.667" viewBox="0 0 512.000000 512.000000"><path d="M237 42.8c0 .4-.8.8-1.7.9-2.4.2-4.6.7-5.8 1.4-1.4.8-6.8 2.3-7.7 2.1-.5-.1-.8.2-.8.8 0 .5-.5 1-1.1 1-3.3 0-15 10-19.9 17-1.3 1.9-2.9 3.8-3.5 4.2-.5.4-.6.8-.1.8.4 0 .1 1-.7 2.3-1.9 2.9-5.6 15.2-6.1 20.4-.3 2.1-.5 3.8-.6 3.8-.1 0-.2 31.4-.3 69.8-.1 38.3.2 69.7.6 69.7.5 0 .6.4.3.9-.5.7.8 10.6 1.8 13.6.2.5.4 1.3.5 1.8 0 .4.8 2.1 1.6 3.7.9 1.7 1.3 3 1 3-1.2 0 7 11.8 11.4 16.3 7.6 8 22 14.9 34.1 16.5 8.5 1.1 27.8.4 32-1.1.8-.3 3.3-1.1 5.5-1.8 4.7-1.4 14.3-6.4 16.8-8.8 5.2-4.9 10.2-10.5 9.9-11.2-.1-.5.3-.9.8-.9.6 0 1.7-1.8 2.6-4 .9-2.2 2.1-4 2.7-4 .6 0 .8-.3.4-.6-.3-.4 0-1.8.7-3.3.7-1.4 1.2-3.3 1.1-4.1 0-.8.2-1.7.6-2 .8-.6 1.8-6.5 2.5-14.4.2-3.2.7-6.2 1-6.7.3-.5.1-.9-.4-.9-1 0-.7-5.4.3-7.1.4-.5.2-.9-.3-.9-1 0-.7-5.4.3-7.1.4-.5.2-.9-.3-.9-1 0-.8-4.2.3-5.9.3-.6.2-1.1-.4-1.1-.6 0-.8-.7-.5-1.5.5-1.2-.4-1.5-4.7-1.6-5.1 0-26.8 0-33.6.1h-3.1l.1 17.5c.1 9.6 0 17.5-.3 17.5s-.6 1.3-.6 2.9c-.2 3.5-3.4 11.2-4.5 10.5-.4-.2-1 .5-1.4 1.6-.4 1.1-1.1 1.8-1.6 1.5-.5-.4-.9-.2-.9.4 0 1.2-8.1 2.6-13.9 2.3-12.1-.5-18-6-19.8-18.4-.5-2.9-.8-35.7-.7-72.8.1-75.2.1-76.1 6.1-82.4 2-2.1 4.1-3.5 4.9-3.2.7.3 1.4.1 1.6-.4.8-2.3 12.2-2.7 17.2-.6 10.3 4.3 14 14.1 13.8 37.1v10h20.9c20.4 0 21-.1 20.7-2-.1-1.1.1-2.6.6-3.4.5-.7.5-1.6 0-2-1.2-.8-1.4-4.1-.2-4.1.5 0 .6-.6.1-1.3-1.1-1.8-1.2-3.6-.2-4.3.5-.3.7-1 .3-1.6-.3-.5-.8-3.5-1-6.6-.1-3.1-.8-7.7-1.4-10.3-.6-2.6-1.3-5.3-1.4-6-.2-.8-.9-2.8-1.6-4.4-.7-1.7-1.2-3.6-1.1-4.3.1-.6-.4-1.2-1-1.2-.7 0-1-.3-.6-.6 1.5-1.6-12.7-19.4-15.4-19.4-.7 0-.9-.3-.6-.7.6-.6-1.5-2.2-5.3-3.9-.8-.4-2.2-1.2-3-1.9-2-1.6-10.7-4.5-11.4-3.7-.3.3-.6 0-.6-.7s-.4-1-.9-.6c-.5.3-1.2.1-1.6-.5-.7-1.2-32.5-1.4-32.5-.2zM49.5 44.8c-.2.2-7.4.3-16 .3l-15.6-.2.4 98.8c.1 54.3.6 100 1 101.4 4.3 16 8.9 24.7 17.3 32.6 5.5 5.1 17.4 11.8 22.6 12.7 1.5.3 3.2.7 3.7 1 4.6 2.9 31 2.6 41.3-.4 2.1-.6 4-1.1 4.3-1 .3 0 1.9-.7 3.5-1.5 1.7-.9 3-1.2 3-.8 0 .5.4.3.8-.2.4-.6 2.7-2.3 5.2-3.8 4.2-2.4 13.8-10.7 12.5-10.7-.3 0 .6-1.2 2-2.7 1.4-1.5 2.5-3.3 2.5-3.8 0-.6.5-1.6 1.2-2.3 1-1 3.1-6 4.2-9.7.1-.6.8-2.8 1.4-5 2.3-8.1 2.5-17.8 2.5-110l.1-94-21-.3-20.9-.2-.1 95.2c0 52.4-.3 96.9-.6 98.9-.3 1.9-1 4.5-1.6 5.6-.6 1.1-.8 2.3-.5 2.7.3.3 0 .6-.7.6s-1.1.3-.7.6c.8.9-5.3 5.8-9.2 7.4-4.7 1.9-15.3 1.6-20.6-.5-2.6-1.1-8.5-7.4-8.5-9.1 0-.8-.4-1.4-.8-1.4-1 0-1-.1-1.6-8.5-.3-3.3-.7-6.9-.9-8-.2-1.1-.1-3.4.4-5.2.4-1.8.3-3.3-.1-3.3s-.4-1.6 0-3.5.5-3.5.1-3.5c-.5 0-.5-5.1.2-12 .1-1.4-.1-3-.6-3.7-.4-.6-.3-1.4.3-1.8.8-.5.8-1 0-2s-.8-1.5 0-2c.7-.5.8-1.1.1-1.9-.6-.7-.7-2.6-.2-4.7.4-1.9.5-4.4 0-5.5-.4-1.2-.3-2.7.1-3.5.5-.7.5-1.8 0-2.4-.5-.6-.5-2.6-.1-4.6.4-1.9.5-4.4 0-5.5-.4-1.2-.3-2.7.1-3.5.5-.7.5-1.8 0-2.4-.5-.6-.5-2.6-.1-4.6.4-1.9.5-4.3.1-5.4-.4-1.1-.4-2.8.1-3.7.6-1 .5-1.9-.1-2.3-.6-.3-.8-1.6-.5-2.8.3-1.2.6-3.1.6-4.2s-.1-5-.2-8.7c0-3.7.2-7.2.6-7.8.3-.5.3-1-.2-1-.7 0-.8-4.1 0-11.8.2-1.8-.1-3.6-.5-3.8-.5-.3-.4-1.2.2-1.9.6-.7.7-1.6.2-1.9-.5-.3-.7-2.2-.4-4.3.2-2.1.3-4.4.3-5.1-.2-2.8-.2-3.9.2-7 .2-1.8-.1-3.6-.5-3.8-.5-.3-.4-1.2.2-1.9.6-.7.7-1.6.2-1.9-.5-.3-.7-2.2-.4-4.3.2-2.1.3-4.4.3-5.1-.2-2.8-.2-3.9.2-7 .2-1.8-.1-3.6-.5-3.8-.5-.3-.4-1.2.2-1.9.7-.8.7-1.5.1-1.9-.5-.3-.7-1.5-.4-2.5.4-1.7-.2-1.9-4.7-2.2-2.8-.2-5.3-.2-5.5-.1zM356.4 46.2c-.9 1.4-1.1 6.7-.3 7.9.4.7.3 1.9-.3 2.6-.7.9-.7 1.3.1 1.3.7 0 .9.5.6 1.1-1 1.6-1.2 10.9-.2 10.9.4 0 .5.5.1 1.2-1 1.6-1.1 14.8-.1 14.8.5 0 .5.6 0 1.2-1 1.6-1 3.6-.2 7 .4 1.4.5 2.9.1 3.2-.9.9-.8 8.6.1 8.6.4 0 .5.5.1 1.1-.8 1.4-1.3 10-.5 9.5.4-.3.6.8.5 2.2-.1 1.5-.3 2.7-.4 2.7-.1 0-.2 1.9-.3 4.2-.2 2.4.1 4.3.6 4.3.4 0 .5.5.1 1.1-.8 1.4-1.3 10-.5 9.5.4-.3.6.8.5 2.2-.1 1.5-.3 2.7-.4 2.7-.1 0-.2 1.9-.3 4.2-.2 2.4.1 4.3.6 4.3.4 0 .5.5.2 1.1-1 1.6-1.2 10.9-.2 10.9.4 0 .5.5.1 1.2-1 1.6-1.1 14.8-.1 14.8.5 0 .5.6 0 1.2-1 1.6-1 3.6-.2 7 .4 1.4.5 2.9.1 3.2-.9.9-.8 8.6.1 8.6.4 0 .5.5.1 1.1-.8 1.4-1.3 10-.5 9.5.4-.3.6.8.5 2.2-.1 1.5-.3 2.7-.4 2.7-.1 0-.2 1.9-.3 4.2-.2 2.4.1 4.3.6 4.3.4 0 .5.5.1 1.1-.8 1.4-1.3 10-.5 9.5.4-.3.6.8.5 2.2-.1 1.5-.3 2.7-.4 2.7-.1 0-.2 1.9-.3 4.2-.2 2.4.1 4.3.6 4.3.4 0 .3.8-.2 1.8-.6 1-.6 2.4-.1 3.2.5.8.6 1.8.3 2.4-1 1.5-.9 8.6 0 8.6.4 0 .5.5.1 1.1-.8 1.4-1.3 10-.5 9.5.4-.3.6.8.5 2.2-.1 1.5-.3 2.7-.4 2.7-.1 0-.2 2.1-.3 4.8-.1 2.6.2 4.7.7 4.7.5 0 .3.7-.4 1.5s-1.1 1.6-.9 1.6c1.4.4 42.8.4 42.7-.1 0-.3 0-.7.1-1 .7-1.7.5-9-.2-9-.5 0-.5-.5-.2-1.1 1-1.5 1.1-11.9.2-11.9-.5 0-.5-.5-.2-1 1-1.5 1.1-10 .2-10-.5 0-.5-.5-.1-1.2 1-1.6 1.1-6.8.1-6.8-.5 0-.5-.5-.2-1.1 1-1.5 1.1-11.9.2-11.9-.5 0-.5-.5-.2-1 1-1.5 1.1-10 .2-10-.5 0-.5-.6-.1-1.2 1.1-1.8 1.2-4.8.2-4.8-.5 0-.6-.5-.2-1.2 1-1.6 1.1-6.8.1-6.8-.5 0-.5-.5-.1-1.1 1-1.6 1.1-8.9.1-8.9-.5 0-.5-.5-.2-1 .9-1.5 1.2-24 .3-24-.4 0-.3-1.1.2-2.4.5-1.5.5-2.7-.3-3.5-.6-.6-.7-1.1-.1-1.1 1.2 0 1.2-6.3-.1-7.2-.7-.5-.7-.8 0-.8 1.2 0 1.4-9 .2-9-.4 0-.5-.5-.1-1.1.9-1.5.9-84.3 0-85.8-.4-.6-.3-1.1.2-1.1.7 0 .8-6.2.1-10.8-.1-.4-.1-.9 0-1.2.6-1.5.7-8 .2-8.7-.7-1-41.1-1.1-41.7-.1zM401 45.8c-.5.2-.7.8-.4 1.3.3.5.7 3 .9 5.5.3 2.4.6 4.8.9 5.3.3.4.6 2.6.7 4.9.2 2.3.6 4.2.9 4.2.3 0 .5 1.1.5 2.5-.1 1.4.4 5.3 1.2 8.8.7 3.4 1 6.8.8 7.5-.3.8 0 1.2.7.9.7-.2 1.2-1 1.1-1.6-.2-.6.4-1.1 1.3-1.1.8 0 1.3-.4 1-.9-.3-.5.3-2 1.4-3.4 1.1-1.4 2-2.8 2-3.2 0-.3.7-1.3 1.5-2.2.8-.8 1.2-1.9.9-2.5-.4-.6-.2-.8.4-.4.6.3 1.3-.3 1.7-1.4.3-1.1 1.1-2 1.6-2 .6 0 .7-.5.4-1-.3-.6-.1-1 .4-1 .6 0 1.1-.6 1.1-1.4 0-.8.7-1.6 1.5-2 .8-.3 1.4-.9 1.3-1.3-.3-1.1 3.2-6.3 4.3-6.3 1.4 0 1 3.6-1 8.9-1 2.8-1.6 5.2-1.3 5.5.3.4 0 .6-.7.6s-1 .4-.7.8c.3.5-.1 2.1-.9 3.5-.8 1.5-1.3 2.9-1.3 3 .1.1-.9 3.6-2.1 7.7-1.3 4.1-2.3 7.7-2.3 8 0 .3-.5 1.2-1.1 1.9-.7.8.9 0 3.6-1.8 2.6-1.7 4.7-2.8 4.7-2.4 0 .4.4.3.8-.3s2.6-2.1 5-3.4c2.3-1.3 4.2-2.8 4.2-3.2 0-.5.4-.7.9-.4.5.3 1.4-.1 2.1-.9.7-.8 1.9-1.5 2.7-1.5.8 0 1.1-.4.8-1-.3-.5 0-.7.8-.4.8.3 1.7-.2 2.1-1.1.3-.9 1-1.4 1.5-1 .6.3 1.4-.3 2-1.2.6-1 1.1-1.5 1.1-1 0 .4 1.1 0 2.4-.8 8.2-5.4-4.1 9.5-23.5 28.3l-3.4 3.3 3-.6c1.7-.3 5.7-.8 9-1 3.3-.2 7-.6 8.2-.9 1.2-.2 5-.7 8.5-1 3.5-.4 7.3-.8 8.5-1 5-1 15.3-1.6 15.3-.9 0 1.5-1.5 2.8-3.5 3.1-2.8.4-3.8.7-5 1.4-.5.3-2.6.9-4.5 1.3s-4.1 1.2-4.7 1.7c-.7.6-1.3.7-1.3.2 0-.5-.4-.3-.8.3-.5.7-2 1.4-3.5 1.5-1.5.1-2.7.6-2.7 1s-.3.7-.7.6c-1.3-.2-6.7 1.4-8 2.4-.7.5-1.7.7-2.3.3-.5-.3-1-.1-1 .6s-.3 1-.6.7c-.7-.8-9.2 2.1-9.9 3.2-.3.5.4.7 1.5.5 1.1-.2 2 0 2 .4 0 .5 1.6 1.2 3.5 1.5 1.9.4 3.5 1.1 3.5 1.7 0 .6.4.7 1 .4.5-.3 2.3.1 4.1 1 1.7.9 3.7 1.4 4.4 1.1.7-.2 1.6.2 1.9 1 .3.9 1 1.3 1.5.9.5-.3 2.5.3 4.4 1.4 1.9 1.1 3.8 1.7 4.1 1.4.3-.3 1.2-.1 1.9.5.8.7 1.7.9 2 .5.4-.3.7-.1.7.6s.5.9 1 .6c.6-.4 1.6-.2 2.3.3.7.5 2.4 1.2 3.8 1.6 1.5.3 2.9 1.2 3.2 2 .5 1.2-.3 1.4-4.1 1-5.7-.6-10.7-1.2-10.7-1.4 0-.1-2-.3-4.5-.6-2.5-.2-6.1-.6-8-.9-5.1-.8-14.1-1.7-17-1.8-1.4 0-2.7-.4-3-.8-.3-.4-1.2-.4-2 .1-1.1.7-1.2 1-.2 1 .8 0 1 .5.6 1.2s-.4 1 .1.6c.4-.4 2.9 1.5 5.5 4.2s5 4.6 5.4 4.3c.3-.4.6-.1.6.6 0 .8 1.8 3 4 5.1 2.2 2.1 4 4.3 4 4.9 0 .6.5 1.1 1.1 1.1 1.6 0 3.9 2.6 3.1 3.5-.4.5.1.5 1 .2 1.3-.4 1.5-.2 1.1 1-.4 1.1-.2 1.4.5.9.7-.4 1.2-.1 1.2.8s.5 1.6 1.2 1.6c.9 0 .9.3 0 1.2-1 1-1.5 1-2.2-.2-.5-.8-1-1.1-1-.6 0 .5-1 0-2.2-1.1-1.3-1.1-3-2.3-3.8-2.7-.8-.3-2.8-1.5-4.5-2.6-1.6-1.1-4.1-2.5-5.5-3.2-1.4-.6-3.3-1.8-4.2-2.6-1-.9-1.8-1.1-1.8-.7 0 .4-1-.3-2.3-1.6-1.3-1.3-2.9-2.5-3.7-2.7-.7-.2-2.6-1.2-4.2-2.3-3.3-2.4-3.8-.8-1.1 3 1.2 1.8 1.3 2.2.2 1.6-1.1-.7-1.2-.6-.2.6.7.9 1.5 2.6 1.7 4 .3 1.3.5 2.5.7 2.6.1.2.3.7.4 1.3.1.5.4 1.2.5 1.5.1.3.3.8.5 1.2.1.5.6 1.9 1.2 3.3 1.3 3.1 2.8 9.2 2.5 10.3-.2.5.2.6.8.2.5-.3 1 0 1 .8s.3 2.9.6 4.6c.5 2.4.3 3.1-1 3.1-1.4 0-2.1-1.1-1.7-3.3 0-.4-.3-.7-.8-.7-.4 0-2.8-3-5.2-6.8-2.3-3.7-4.7-6.9-5.1-7-.4-.2-.6-.8-.2-1.3.3-.5-.2-1.2-1-1.5-.9-.3-1.3-1-1-1.5.3-.5 0-.9-.6-.9s-.9-.4-.6-.9c.3-.5-.1-1.1-.9-1.5-.8-.3-1.5-1.2-1.5-1.9 0-.8-.8-2.1-1.7-2.8-1.1-1-1.4-1-.9-.2.4.7.3 1.3-.2 1.3s-.9 1.2-1 2.7c0 1.6-.4 4.4-.8 6.3-.3 1.9-.8 4.8-.9 6.5-.2 1.6-.4 3-.5 3-.2 0-.4.9-.5 2-.2 1.1-.6 4-1 6.5s-.8 5.5-1 6.7c-.2 1.2-.6 2.6-.9 3.2-.9 1.4 2.7 3.1 4.4 2.1.8-.5 2.2-.4 3.2.1s1.8.6 1.8.2c0-.4 2.4-.9 5.4-1 5.7-.1 6.3.4 7.2 5.2.6 3.7 1.3 5.8 3.5 11.3.5 1.3.7 2.8.4 3.3-.4.5-.1.9.5.9s.9.3.7.7c-.3.5 0 1.9.6 3.3s1.1 3.2 1.1 4c.1.8.5 2.1.9 2.7.5.7.5 1.3.1 1.3-.3 0-.1.7.6 1.5s.9 1.5.6 1.5c-.4 0-.2.9.4 2.1 1.2 2.2 2.1 5.3 2.4 8.5.1 1.1.6 2.7 1.1 3.5.5.7 1 1.8 1 2.4.1 1.1 3.3 12.1 4.2 14.5.4.8.5 2 .4 2.7-.1.6.3 1.4.9 1.8.5.3 1 1.9 1 3.4s.4 3.1.9 3.7c.6.5 1.2 2 1.5 3.4.8 3.6 2.2 8.8 3.9 14.2.8 2.7 1.2 4.8.9 4.8-.3 0 0 .6.6 1.2 1.3 1.3 40.3 2 42.3.8.7-.5.7-1.5 0-3.1-2-5-2.4-6.4-2.2-7.7.1-.6-.2-1.2-.8-1.2-.5 0-.8-.8-.6-1.8.1-.9-.3-2.6-.9-3.7-.6-1.1-1.1-2.5-1.2-3-.1-1-.8-3.2-2.5-7.3-.5-1.3-.7-2.8-.4-3.3.4-.5.2-.9-.4-.9-.5 0-1.5-2.5-2.2-5.5-.7-3-1.6-5.5-2.1-5.5-.4 0-.7-.3-.7-.8.1-.4 0-.9-.1-1.2-.2-.5-.9-4.6-1.2-6.8-.1-.6-.5-1.2-1-1.2s-.8-.6-.7-1.3c.2-1.2-.2-2.5-2.2-7.5-.5-1.3-.7-2.8-.4-3.3.4-.5.1-.9-.4-.9-.6 0-1-.3-.9-.8 0-.4-.1-1.4-.5-2.2-.3-.8-1.1-3.3-1.7-5.5-.6-2.2-1.5-4.9-2-6-.7-1.7-5.1-15.7-5.6-17.8-.1-.4-.2-.8-.4-1-.1-.1-.3-.9-.5-1.7-.1-.8-1-3.7-1.9-6.4-.9-2.7-1.5-4.9-1.4-5 8.7-5.5 10.7-7 10.2-7.7-.3-.5.3-.6 1.3-.2 1 .3 1.5.3 1.2-.1-.4-.4.3-1.7 1.5-3 4.5-4.7 6.2-7.2 5.8-8.5-.3-.8 0-1.1.7-.7.7.4 1.1-.1 1.1-1.3 0-1.1.5-2.3 1-2.6.6-.4.8-1.1.5-1.6-.4-.5-.2-.9.3-.9s1.3-1.5 1.7-3.3c.4-1.7.9-3.7 1.1-4.2 1.4-4.6 2.3-10.3 3-19 .9-12.4.9-14.5.1-14.5-.4 0-.3-.9.3-2s.7-2 .2-2c-.4 0-.8-1.5-.9-3.3-.1-5-.9-11-1.8-13-.4-1-.5-2.1-.1-2.4.3-.3.1-1.2-.6-2-.6-.8-1.3-2.4-1.4-3.7-.3-2.7-4.5-12-5.6-12.4-.4-.2-.8-1-.8-1.7 0-.8-.8-1.9-1.7-2.4-1-.6-1.5-1.1-1.1-1.1.5 0-1.1-2-3.4-4.4-2.4-2.4-4.4-4.3-4.6-4.1-.2.1-1.5-.8-2.9-2.1s-3.5-2.4-4.5-2.4c-1.1 0-1.6-.5-1.3-1 .3-.6-.2-1-1.2-1-1.1 0-2.3-.4-2.9-.9-.5-.6-2-1.2-3.4-1.5-1.4-.3-4.1-1-6-1.6-1.9-.6-5.1-1.3-7-1.6-1.9-.2-5.3-.7-7.5-.9-4.9-.7-27-1.2-28.5-.7zM462 304.8c-7.7 2.5-19.9 10.9-18.3 12.6.4.3.1.6-.6.6-1.6 0-4.2 2.6-3.4 3.4.4.3.1.6-.5.6-1.5 0-5.2 3.6-5.2 5.1 0 .5-.4.7-1 .4-.5-.3-1 .1-1 .9 0 .9-.3 1.5-.7 1.4-.5-.1-2.1 1-3.7 2.5s-2.5 2.7-2 2.7-.3.8-1.9 1.8c-1.5 1-2.4 2.2-2 2.5.3.4-.1.7-1 .7s-1.7.4-1.7 1c0 1.8-2.8 1-6.1-1.8-1.8-1.5-2.9-2-2.4-1.2.7 1.2.4 1.2-1.1-.1-2.4-2.1-8.7-5.4-9.6-5.1-.5.1-.8-.2-.8-.8 0-.5-.6-1-1.4-1-.7 0-1.9-.7-2.6-1.5-.7-.8-1.6-1.2-2.1-1-.4.3-1.6.2-2.6-.3s-3.1-1.6-4.8-2.4c-1.6-.9-4.6-1.9-6.5-2.3-1.9-.4-3.9-1-4.5-1.3-.5-.3-1.6-.7-2.5-.8-2.8-.3-7-1.3-7.9-1.8-3.6-2.2-40.7-2.7-50.6-.7-3.3.7-6.9 1.4-8 1.6-1.1.1-2 .4-2 .5 0 .1-.9.4-2 .6-3.7.6-11 2.7-11.5 3.4-.3.4-2.6 1.2-5.3 2-2.6.7-5 1.7-5.3 2.1-.3.5-1.4.9-2.5.9-1 0-1.9.4-1.9.9 0 .8-3.7 2.4-5.2 2.2-.5-.1-.8.3-.8.7 0 .5-1.7 1.7-3.7 2.8-2.1 1-5.4 3.1-7.3 4.5-3.9 2.9-5.5 3-9.5.3-4.6-3-8.8-5.3-15.5-8.4-3.6-1.7-7.8-3.7-9.5-4.5-4.9-2.3-11.8-4.4-12.7-3.9-.4.3-.8.1-.8-.3 0-.5-3.5-1.5-7.7-2.3-4.3-.7-8.7-1.5-9.8-1.8-1.1-.2-4.1-.5-6.7-.6-2.7 0-4.8-.5-4.8-.9 0-.5-.4-.6-1-.2-.5.3-6.2.8-12.7 1-11.5.4-19.8 1-19.8 1.5 0 .1-.9.4-2 .6-3.6.5-8 1.5-10 2.1-1.1.4-2.3.8-2.7.9-.5.1-1 .3-1.3.4-.3.1-.9.4-1.5.5-.5.1-1.1.3-1.2.5-.2.1-1 .3-1.8.5-2.9.7-8.5 2.8-11.3 4.2-1.5.8-2.7 1.2-2.7.8 0-.3-1.7.5-3.7 1.8-2.1 1.2-5.1 2.9-6.8 3.7-1.6.8-3.9 2.2-5 3.1-3.7 3.2-5.1 2.6-12.4-4.8-3.8-3.9-7.2-6.9-7.5-6.5-.3.3-.6 0-.6-.6 0-1.8-17.2-18.2-19.7-18.8-1.3-.4-2.3-.9-2.3-1.3s-1.2-.8-2.6-.9c-1.5-.1-3.2-.6-3.9-1.2-.6-.5-1.5-.7-1.8-.3-.4.3-2.7.6-5.2.6s-4.8.3-5 .8c-.3.4-1.2.6-1.9.3-.8-.3-1.7 0-2.1.5-.3.6-1.1.9-1.6.6-.5-.4-.9-.1-.9.4 0 .6-.4 1.1-1 1.1-.5 0-2.8 1.9-5.1 4.2-2.3 2.4-3.8 3.7-3.4 2.9.5-.9.4-1.2-.3-.7-.7.4-1.2 1.4-1.2 2.2 0 .8-.5 1.4-1.2 1.4-.6 0-.8.3-.5.7.4.3 0 1.7-.8 2.9-2.5 3.8-3.3 10.8-2.2 17.6 1.4 7.9 4.7 12.5 19.3 27C41.5 376 48 382.9 48 383.4c0 .6-7 8.1-15.6 16.7-8.6 8.7-15.3 16.3-14.9 16.9.3.5.2 1-.4 1-1.6 0-3.4 7.9-3.3 14.8 0 7.8 3.5 15.3 9.9 21.2 2.3 2.3 4.3 3.8 4.3 3.5 0-.3 1.2.2 2.7 1.2 3.4 2.3 4.4 2.5 13.4 2.6 5.1.1 8.2-.3 9.3-1.2.9-.7 1.6-1 1.6-.6 0 2.2 9.4-5.8 22.8-19.3l15.3-15.4 3.2 1.3c1.8.7 3.8 1.9 4.6 2.6 1.9 1.9 9.1 5.5 9.1 4.6 0-.5.4-.3.8.3.7 1 9.2 5.4 10.4 5.4.3 0 2.3.8 4.4 1.7 2.2.9 4.1 1.7 4.4 1.8.3.1 4.8 1.1 10 2.4 5.2 1.3 11.8 2.6 14.5 2.9 6.6.7 29.7.6 36-.1 5.4-.6 23.4-4.6 25-5.5 1.2-.8 3.3-1.3 6-1.5 1.1-.1 2.6-1 3.3-2 .7-.9 2.2-1.7 3.3-1.7 2 0 5.1-1.5 8.1-3.8.9-.8 2.1-1.1 2.6-.8.5.3 2-.6 3.3-2 1.2-1.3 2.9-2.2 3.5-2 .7.3 1.4-.1 1.7-.7.3-.7 1.8-1.9 3.3-2.9 2.9-1.6 3-1.6 9.4 2.8 6.7 4.6 14.5 8.7 16.8 8.8.7.1 1.6.6 2 1.2.6 1 3 2.2 4.2 2.1.3 0 2.3.9 4.5 2 2.2 1.2 4.2 2.1 4.5 2.1.3 0 2.3.5 4.5 1.1 2.2.6 4.3 1.1 4.7 1.1.4.1 2.2.6 4 1.1 1.8.5 5.1 1.2 7.3 1.5 2.2.3 6.5.9 9.5 1.4 7.5 1.1 24.2 1 25.8-.2.8-.7 1.2-.7 1.2.1 0 .7.5.9 1 .6.6-.3 3.2-.9 5.8-1.2 5.8-.6 6.8-.8 11.2-1.7 4.1-.9 15.6-4.4 18.5-5.6 1.1-.5 3.7-1.4 5.8-2.1 2-.7 3.7-1.7 3.7-2.2 0-.5.7-.7 1.5-.3.8.3 1.5.2 1.5-.2 0-.5 1.8-1.6 3.9-2.5 2.2-1 5.5-2.9 7.5-4.2 2-1.3 3.6-2.2 3.6-1.8 0 .3.8-.3 1.8-1.3.9-1 2.2-2 2.9-2.1.7-.2 7 5.6 14.2 12.7 7.1 7.2 13.4 13 14 13 .6 0 1.1.5 1.1 1.1 0 1.8 9.4 8.6 12.7 9.3 1 .1 2.5.6 3.3 1 .9.3 4 .4 7 .1 3-.3 6.3-.5 7.3-.6.9 0 1.7-.4 1.7-.9 0-.4 1.1-1.1 2.5-1.4 1.4-.4 3.9-2.1 5.6-3.9 1.7-1.7 3.6-3.1 4.1-2.9.5.1.7-.2.4-.7-.3-.5.6-1.9 2.1-3.1 1.6-1.2 2.2-1.8 1.4-1.5-.9.6-.9.1.3-1.7.9-1.4 1.3-2.8.9-3.1-.3-.4-.1-.7.6-.7s.9-.5.6-1c-.4-.6-.3-1.6.3-2.3 1.2-1.6 1.3-10.5.1-11.3-.5-.3-.7-1-.3-1.5.3-.5 0-1.7-.7-2.5-.6-.8-.9-1.7-.6-2.1.4-.3-.1-1.2-1.1-1.9-.9-.7-1.7-1.7-1.7-2.3 0-.5-4.1-5-9.1-10s-8.9-9.3-8.6-9.6c.3-.3-.2-.5-1.1-.5-1 0-1.7-.7-1.7-1.6 0-.8-.4-1.3-.9-.9-.5.3-1.2-.4-1.6-1.5-.3-1.1-1.2-2-1.8-2.1-.7 0-2.5-1.6-4-3.5l-2.9-3.4 13.4-13.3c16.8-16.7 20.2-21 22.1-27.2 4.2-14.5-3-30.7-16.3-36.4-4.6-2-15.8-3.4-19-2.3zm-123.3 39.1c-.3 1.3 12.9 14.1 13.8 13.3.5-.4.6-.2.2.3-.7 1.3 20.7 22.7 21.7 21.7.4-.4.7-.2.5.3-.1.6.1 1.8.5 2.7.6 1.4-3.6 6.1-19.2 21.8l-20.1 20.1-19.5-19.5c-13.5-13.5-19.4-20.1-19.3-21.5.1-1.1.3-1.8.5-1.6.7.7 5.1-3.8 4.6-4.7-.3-.4.2-.8 1-.8.9 0 1.6-.6 1.6-1.4 0-.8.5-1.8 1.2-2.2.7-.5.8-.3.3.7-.5.8.6 0 2.4-1.8 1.8-1.7 3-3.6 2.7-4.2-.4-.7-.1-.9.8-.5.9.3 1.9-.4 2.8-2 .7-1.4 1.8-2.6 2.3-2.8.6-.2.9-.6.8-1.1-.2-.4.3-.6 1-.5.6.2 1.1-.3 1-1-.2-.6.4-1.2 1.2-1.2.8 0 1.5-.8 1.5-1.7 0-.9.3-1.3.7-1 .8.8 6.3-4.8 6.3-6.5 0-.6.3-.9.6-.5.8.8 3.3-1.6 2.7-2.6-.2-.4.3-.7 1.2-.7.9 0 1.4-.4 1.1-.8-.2-.4.4-.8 1.4-.9 1.1-.1 1.9.2 1.7.6zm-145.5 21.4c9.3 9.3 17.1 17.8 17.3 18.9.3 1.2.2 1.9-.1 1.6-.6-.7-24.4 22.7-24.4 24.1 0 .5-.5 1.3-1.2 1.7-.7.5-.8.3-.3-.6.5-.9.4-1.1-.3-.6-.7.4-1.2 1.4-1.2 2.2 0 .8-.5 1.4-1.1 1.4-1.5 0-5.9 4.7-5.1 5.4.3.3-.2.6-1.1.6-1 0-1.7.4-1.7 1 0 .5-.5 1-1.1 1-1.6 0-34.5-33.2-34.1-34.4.2-.6.1-.8-.3-.4s-1.6-.2-2.7-1.2c-1.9-1.8-1.7-2.1 17.4-21.3 18.4-18.5 19.4-19.3 21.2-17.8 1.1.9 9.5 9.2 18.8 18.4z"/></svg>