<?xml version="1.0" encoding="UTF-8" standalone="no"?>
<svg xmlns:rdf="http://www.w3.org/1999/02/22-rdf-syntax-ns#" xmlns="http://www.w3.org/2000/svg" viewBox="0 0 476.2 91.832" preserveAspectRatio="xMinYMid" version="1.0" xmlns:cc="http://creativecommons.org/ns#" xmlns:dc="http://purl.org/dc/elements/1.1/">
 <g id="uc" fill="#f1ab00" fill-rule="evenodd">
  <path d="m0.0079956 19.219h12.148v53.402c0 5.192 2.055 7.739 6.465 7.739 4.407 0 6.465-2.547 6.465-7.739v-53.402h12.149v52.914c0 12.149-7.055 18.813-18.618 18.813-11.562 0-18.617-6.66-18.617-18.813v-52.914"/>
  <path d="m73.508 42.836v-5.484c0-5.977-2.742-8.524-5.879-8.524-4.898 0-6.465 2.547-6.465 7.84v35.86c0 5.289 1.567 7.836 6.465 7.836 4.406 0 5.879-2.547 5.879-7.153v-8.523h12.148v8.133c0 9.992-5.878 18.129-18.031 18.129-12.738 0-18.617-8.133-18.617-18.129v-36.45c0-9.992 5.879-18.128 18.617-18.128 12.149 0 18.031 8.816 18.031 19.402v5.191h-12.148"/>
 </g>
 <g id="riverside" fill="#2d6cc0" fill-rule="evenodd">
  <path d="m158.96 0.19998v10.168c0 1.671 1.2 3.07 3.45 3.07s3.44-1.395 3.44-3.07v-10.168h1.6v10.046c0 2.868-2.08 4.543-5.05 4.543s-5.04-1.671-5.04-4.543v-10.046h1.59"/>
  <path d="m174.27 14.598v-14.394h2.3l6.27 11.085h0.08v-11.085h1.44v14.394h-1.32l-7.29-12.84h-0.04v12.84h-1.43"/>
  <path d="m191.54 14.598h1.6v-14.394h-1.6v14.394z"/>
  <path d="m198.54 0.19998h1.59l3.55 11.804h0.04l3.56-11.804h1.62l-4.47 14.394h-1.45l-4.44-14.394"/>
  <path d="m222.57 0.19998v1.351h-7.04v4.824h5.01v1.356h-5.01v5.5h7.44v1.355h-9.03v-14.394h8.63"/>
  <path d="m228.47 14.598v-14.394h4.63c3.11 0 4.8 1.394 4.8 3.785 0 2.031-1.17 3.187-2.86 3.746l3.05 6.855h-1.73l-2.91-6.539h-3.37v6.539h-1.6l-0.01 0.008zm1.6-7.898h2.89c2.19 0 3.34-0.817 3.34-2.629 0-1.934-1.31-2.512-3.36-2.512h-2.87v5.145"/>
  <path d="m251.22 3.871c-0.35-1.394-1.49-2.511-3.34-2.511-1.68 0-2.68 0.797-2.7 2.23-0.04 3.149 8.1 2.352 8.1 6.977 0 2.09-1.18 4.226-4.85 4.226-3.15 0-4.38-2.031-5.14-3.746l1.45-0.515c0.58 1.511 1.66 2.91 3.77 2.91s3.17-1.114 3.17-2.59c0-3.668-8.1-2.59-8.1-7.137 0-2.07 1.74-3.707 4.33-3.707 2.23 0 3.98 1.176 4.74 3.547l-1.43 0.316"/>
  <path d="m259.5 14.598h1.59v-14.394h-1.59v14.394z"/>
  <path d="m272.48 1.555v13.039h-1.59v-13.039h-4.31v-1.351h10.21v1.351h-4.31"/>
  <path d="m284.48 8.536l-4.42-8.332h1.75l3.47 6.597 3.47-6.597h1.75l-4.42 8.332v6.058h-1.6v-6.058"/>
  <path d="m308.57 0c3.53 0 5.62 2.59 5.62 7.399 0 4.805-2.09 7.394-5.62 7.394s-5.62-2.589-5.62-7.394 2.09-7.399 5.62-7.399zm0 13.442c2.53 0 4.03-1.953 4.03-6.039s-1.49-6.039-4.03-6.039c-2.53 0-4.02 1.953-4.02 6.039s1.49 6.039 4.02 6.039"/>
  <path d="m328.27 0.19998v1.351h-6.94v4.824h5.15v1.356h-5.15v6.855h-1.59v-14.394h8.53"/>
  <path d="m351.34 10.289c-0.64 2.672-2.11 4.504-5.06 4.504-3.23 0-5.51-2.351-5.51-7.394 0-4.684 2.03-7.399 5.51-7.399 2.67 0 4.22 1.555 4.86 4.184l-1.47 0.437c-0.52-2.031-1.43-3.269-3.59-3.269-2.07 0-3.7 1.91-3.7 6.039 0 4.164 1.63 6.039 4.02 6.039 2.21 0 3.07-1.672 3.51-3.43l1.43 0.278"/>
  <path d="m355.11 14.598l4.43-14.394h2.37l4.42 14.394h-1.67l-1.36-4.504h-5.16l-1.35 4.504h-1.68zm3.43-5.863h4.37l-2.07-7.418h-0.22l-2.08 7.418"/>
  <path d="m371.48 14.598v-14.394h1.59v13.039h6.82v1.355h-8.41"/>
  <path d="m385.44 14.598h1.59v-14.394h-1.59v14.394z"/>
  <path d="m402.61 0.19998v1.351h-6.94v4.824h5.14v1.356h-5.14v6.855h-1.6v-14.394h8.54"/>
  <path d="m412.32 0c3.52 0 5.62 2.59 5.62 7.399 0 4.805-2.1 7.394-5.62 7.394-3.53 0-5.62-2.589-5.62-7.394s2.09-7.399 5.62-7.399zm0 13.442c2.53 0 4.02-1.953 4.02-6.039s-1.49-6.039-4.02-6.039c-2.54 0-4.03 1.953-4.03 6.039s1.49 6.039 4.03 6.039"/>
  <path d="m423.48 14.598v-14.394h4.63c3.11 0 4.8 1.394 4.8 3.785 0 2.031-1.17 3.187-2.86 3.746l3.05 6.855h-1.73l-2.91-6.539h-3.37v6.539h-1.59l-0.02 0.008zm1.6-7.898h2.89c2.19 0 3.35-0.817 3.35-2.629 0-1.934-1.32-2.512-3.37-2.512h-2.87v5.145"/>
  <path d="m439.45 14.598v-14.394h2.3l6.27 11.085h0.08v-11.085h1.44v14.394h-1.32l-7.29-12.84h-0.04v12.84h-1.43"/>
  <path d="m456.72 14.598h1.6v-14.394h-1.6v14.394z"/>
  <path d="m463.84 14.598l4.43-14.394h2.37l4.43 14.394h-1.67l-1.36-4.504h-5.16l-1.36 4.504h-1.68zm3.43-5.863h4.37l-2.07-7.418h-0.22l-2.07 7.418"/>
  <path d="m157.36 90.844h12.29v-71.555h-12.29v71.555z"/>
  <path d="m208.17 19.289h12.09l-14.97 71.555h-12.28l-14.96-71.555h12.08l8.92 49.653h0.2l8.92-49.653"/>
  <path d="m228.31 90.844v-71.555h32.91v10.704h-20.61v18.433h15.86v10.695h-15.86v21.012h22v10.699h-34.3"/>
  <path d="m284.47 90.844h-12.28v-71.555h17.24c13.77 0 20.81 5.848 20.81 21.11 0 11.5-4.46 16.152-8.62 18.031l10.4 32.41h-12.48l-8.72-29.633c-1.58 0.192-4.16 0.293-6.35 0.293v29.344zm0-39.441h4.36c6.64 0 9.12-2.477 9.12-11 0-8.52-2.48-11-9.12-11h-4.36v22"/>
  <path d="m343.2 36.938c-0.5-6.145-3.77-7.93-6.54-7.93-3.97 0-6.15 2.574-6.15 7.031 0 12.192 24.98 18.036 24.98 37.457 0 11.793-7.93 18.336-19.43 18.336-11.39 0-17.94-9.117-18.43-19.824l11.69-1.683c0.49 7.234 3.37 10.804 7.34 10.804 4.25 0 7.13-2.277 7.13-6.539 0-14.172-24.98-17.937-24.98-38.449 0-11.395 6.94-17.84 19.03-17.84 10.01 0 15.95 7.235 17.05 17.348l-11.7 1.285"/>
  <path d="m366.12 90.844h12.29v-71.555h-12.29v71.555z"/>
  <path d="m392.14 19.289h18.23c12.69 0 19.42 6.938 19.42 21.606v28.34c0 14.668-6.73 21.605-19.42 21.605h-18.23v-71.554 0.003zm12.29 61.446h4.26c6.54 0 8.82-2.477 8.82-10.008v-31.313c0-7.527-2.28-10.007-8.82-10.007h-4.26v51.332"/>
  <path d="m441.91 90.844v-71.555h32.9v10.704h-20.61v18.433h15.86v10.695h-15.86v21.012h22v10.699h-34.29"/>
  <path d="m113.48 0.042999h-15.644v90.864h15.604v-37.25m21.77-3.903c5.28-2.386 10.94-8.3 10.94-22.902 0-19.383-8.93-26.805-26.42-26.805h-5.74l2.52 15.778 9.33-14.379-5.73 17.222 15.51-9.422-12.64 13.024 22.13-2.59-21.1 7.082 20.26 7.199-21.29-2.711 12.64 13.032-15.51-9.426 5.73 17.222-9.24-14.234-2.6 15.813c2.64-0.016 5.61-0.141 7.49-0.371l11.07 37.628h15.85l-13.2-41.156"/>
 </g>
</svg>

